<mxfile host="65bd71144e">
    <diagram id="Gno18QfTgmm2C4pdYcTM" name="Page-1">
        <mxGraphModel dx="577" dy="255" grid="1" gridSize="10" guides="1" tooltips="1" connect="1" arrows="1" fold="1" page="1" pageScale="1" pageWidth="827" pageHeight="1169" math="0" shadow="0">
            <root>
                <mxCell id="0"/>
                <mxCell id="1" parent="0"/>
                <mxCell id="3ydWhISQHdn1RK8ehiRQ-15" style="edgeStyle=orthogonalEdgeStyle;rounded=0;orthogonalLoop=1;jettySize=auto;html=1;exitX=1;exitY=0.5;exitDx=0;exitDy=0;entryX=0;entryY=0.5;entryDx=0;entryDy=0;entryPerimeter=0;" parent="1" source="2" target="3" edge="1">
                    <mxGeometry relative="1" as="geometry"/>
                </mxCell>
                <mxCell id="2" value="Kafka Connect &lt;br&gt;Syslogconnector" style="rounded=0;whiteSpace=wrap;html=1;" parent="1" vertex="1">
                    <mxGeometry x="293" y="285" width="120" height="60" as="geometry"/>
                </mxCell>
                <mxCell id="3ydWhISQHdn1RK8ehiRQ-17" style="edgeStyle=orthogonalEdgeStyle;rounded=0;orthogonalLoop=1;jettySize=auto;html=1;exitX=1;exitY=0.5;exitDx=0;exitDy=0;exitPerimeter=0;entryX=0.5;entryY=0;entryDx=0;entryDy=0;" parent="1" source="3" target="4" edge="1">
                    <mxGeometry relative="1" as="geometry"/>
                </mxCell>
                <mxCell id="3" value="Topic :&lt;br&gt;logs" style="shape=cylinder3;whiteSpace=wrap;html=1;boundedLbl=1;backgroundOutline=1;size=15;" parent="1" vertex="1">
                    <mxGeometry x="490" y="275" width="60" height="80" as="geometry"/>
                </mxCell>
                <mxCell id="3ydWhISQHdn1RK8ehiRQ-18" style="edgeStyle=orthogonalEdgeStyle;rounded=0;orthogonalLoop=1;jettySize=auto;html=1;entryX=1;entryY=0.5;entryDx=0;entryDy=0;entryPerimeter=0;exitX=0.5;exitY=1;exitDx=0;exitDy=0;" parent="1" source="4" target="6" edge="1">
                    <mxGeometry relative="1" as="geometry"/>
                </mxCell>
                <mxCell id="4" value="LOGSTASH" style="rounded=0;whiteSpace=wrap;html=1;verticalAlign=top;" parent="1" vertex="1">
                    <mxGeometry x="600" y="370" width="120" height="60" as="geometry"/>
                </mxCell>
                <mxCell id="3ydWhISQHdn1RK8ehiRQ-22" style="edgeStyle=orthogonalEdgeStyle;rounded=0;orthogonalLoop=1;jettySize=auto;html=1;exitX=0;exitY=0.5;exitDx=0;exitDy=0;exitPerimeter=0;entryX=1;entryY=0.5;entryDx=0;entryDy=0;" parent="1" source="6" target="5" edge="1">
                    <mxGeometry relative="1" as="geometry"/>
                </mxCell>
                <mxCell id="6" value="Topic :&lt;br&gt;ssh_logs" style="shape=cylinder3;whiteSpace=wrap;html=1;boundedLbl=1;backgroundOutline=1;size=15;" parent="1" vertex="1">
                    <mxGeometry x="490" y="430" width="60" height="80" as="geometry"/>
                </mxCell>
                <mxCell id="3ydWhISQHdn1RK8ehiRQ-26" style="edgeStyle=orthogonalEdgeStyle;rounded=0;orthogonalLoop=1;jettySize=auto;html=1;exitX=0.5;exitY=1;exitDx=0;exitDy=0;exitPerimeter=0;entryX=0.5;entryY=0;entryDx=0;entryDy=0;" parent="1" source="7" target="8" edge="1">
                    <mxGeometry relative="1" as="geometry"/>
                </mxCell>
                <mxCell id="7" value="Topic :&lt;br&gt;SSH_BAD_AUTH_COUNT" style="shape=cylinder3;whiteSpace=wrap;html=1;boundedLbl=1;backgroundOutline=1;size=15;" parent="1" vertex="1">
                    <mxGeometry x="91" y="432" width="60" height="80" as="geometry"/>
                </mxCell>
                <mxCell id="3ydWhISQHdn1RK8ehiRQ-29" style="edgeStyle=orthogonalEdgeStyle;rounded=0;orthogonalLoop=1;jettySize=auto;html=1;exitX=1;exitY=0.5;exitDx=0;exitDy=0;entryX=0;entryY=0.5;entryDx=0;entryDy=0;" parent="1" source="8" target="3ydWhISQHdn1RK8ehiRQ-27" edge="1">
                    <mxGeometry relative="1" as="geometry"/>
                </mxCell>
                <mxCell id="8" value="Kafka Connect&lt;br&gt;ElasticConnector" style="rounded=0;whiteSpace=wrap;html=1;" parent="1" vertex="1">
                    <mxGeometry x="60" y="583.5" width="120" height="60" as="geometry"/>
                </mxCell>
                <mxCell id="10" value="Ubuntu docker &lt;br&gt;container" style="rounded=0;whiteSpace=wrap;html=1;verticalAlign=top;" parent="1" vertex="1">
                    <mxGeometry x="3" y="260" width="180" height="110" as="geometry"/>
                </mxCell>
                <mxCell id="3ydWhISQHdn1RK8ehiRQ-10" value="" style="shape=image;verticalLabelPosition=bottom;labelBackgroundColor=#ffffff;verticalAlign=top;aspect=fixed;imageAspect=0;image=https://assets.ubuntu.com/v1/29985a98-ubuntu-logo32.png;" parent="1" vertex="1">
                    <mxGeometry x="68" y="305" width="50" height="50" as="geometry"/>
                </mxCell>
                <mxCell id="3ydWhISQHdn1RK8ehiRQ-12" value="" style="shape=image;verticalLabelPosition=bottom;labelBackgroundColor=#ffffff;verticalAlign=top;aspect=fixed;imageAspect=0;image=https://upload.wikimedia.org/wikipedia/commons/thumb/0/05/Apache_kafka.svg/1261px-Apache_kafka.svg.png;" parent="1" vertex="1">
                    <mxGeometry x="504.61" y="245" width="30.77" height="50" as="geometry"/>
                </mxCell>
                <mxCell id="3ydWhISQHdn1RK8ehiRQ-13" value="" style="endArrow=classic;html=1;rounded=0;exitX=1;exitY=0.5;exitDx=0;exitDy=0;entryX=0;entryY=0.5;entryDx=0;entryDy=0;" parent="1" source="10" target="2" edge="1">
                    <mxGeometry width="50" height="50" relative="1" as="geometry">
                        <mxPoint x="350" y="430" as="sourcePoint"/>
                        <mxPoint x="400" y="380" as="targetPoint"/>
                    </mxGeometry>
                </mxCell>
                <mxCell id="3ydWhISQHdn1RK8ehiRQ-14" value=": 42514" style="text;html=1;strokeColor=none;fillColor=none;align=center;verticalAlign=middle;whiteSpace=wrap;rounded=0;" parent="1" vertex="1">
                    <mxGeometry x="240" y="285" width="60" height="30" as="geometry"/>
                </mxCell>
                <mxCell id="3ydWhISQHdn1RK8ehiRQ-16" value="" style="shape=image;verticalLabelPosition=bottom;labelBackgroundColor=#ffffff;verticalAlign=top;aspect=fixed;imageAspect=0;image=https://upload.wikimedia.org/wikipedia/commons/thumb/0/05/Apache_kafka.svg/1261px-Apache_kafka.svg.png;" parent="1" vertex="1">
                    <mxGeometry x="504.61" y="410" width="30.77" height="50" as="geometry"/>
                </mxCell>
                <mxCell id="3ydWhISQHdn1RK8ehiRQ-20" value="" style="shape=image;verticalLabelPosition=bottom;labelBackgroundColor=#ffffff;verticalAlign=top;aspect=fixed;imageAspect=0;image=https://www.bujarra.com/wp-content/uploads/2018/11/logstash.jpg;" parent="1" vertex="1">
                    <mxGeometry x="620.61" y="375" width="78.79" height="50" as="geometry"/>
                </mxCell>
                <mxCell id="3ydWhISQHdn1RK8ehiRQ-23" value="" style="group" parent="1" vertex="1" connectable="0">
                    <mxGeometry x="298" y="441" width="119" height="61" as="geometry"/>
                </mxCell>
                <mxCell id="5" value="&amp;nbsp;KSQLDB.&amp;nbsp;" style="rounded=0;whiteSpace=wrap;html=1;verticalAlign=middle;align=right;" parent="3ydWhISQHdn1RK8ehiRQ-23" vertex="1">
                    <mxGeometry x="2" width="117" height="60" as="geometry"/>
                </mxCell>
                <mxCell id="3ydWhISQHdn1RK8ehiRQ-21" value="" style="shape=image;verticalLabelPosition=bottom;labelBackgroundColor=#ffffff;verticalAlign=top;aspect=fixed;imageAspect=0;image=https://pbs.twimg.com/profile_images/1197163687217266688/MEIl-K0w_400x400.png;" parent="3ydWhISQHdn1RK8ehiRQ-23" vertex="1">
                    <mxGeometry y="1" width="60" height="60" as="geometry"/>
                </mxCell>
                <mxCell id="3ydWhISQHdn1RK8ehiRQ-24" value="" style="shape=image;verticalLabelPosition=bottom;labelBackgroundColor=#ffffff;verticalAlign=top;aspect=fixed;imageAspect=0;image=https://upload.wikimedia.org/wikipedia/commons/thumb/0/05/Apache_kafka.svg/1261px-Apache_kafka.svg.png;" parent="1" vertex="1">
                    <mxGeometry x="109.62" y="406" width="30.77" height="50" as="geometry"/>
                </mxCell>
                <mxCell id="3ydWhISQHdn1RK8ehiRQ-25" style="edgeStyle=orthogonalEdgeStyle;rounded=0;orthogonalLoop=1;jettySize=auto;html=1;exitX=0;exitY=0.5;exitDx=0;exitDy=0;" parent="1" source="3ydWhISQHdn1RK8ehiRQ-21" target="7" edge="1">
                    <mxGeometry relative="1" as="geometry">
                        <mxPoint x="249" y="470.5" as="sourcePoint"/>
                    </mxGeometry>
                </mxCell>
                <mxCell id="3ydWhISQHdn1RK8ehiRQ-27" value="" style="rounded=0;whiteSpace=wrap;html=1;verticalAlign=middle;align=right;" parent="1" vertex="1">
                    <mxGeometry x="300" y="583.5" width="200" height="60" as="geometry"/>
                </mxCell>
                <mxCell id="3ydWhISQHdn1RK8ehiRQ-28" value="" style="shape=image;verticalLabelPosition=bottom;labelBackgroundColor=#ffffff;verticalAlign=top;aspect=fixed;imageAspect=0;image=https://upload.wikimedia.org/wikipedia/commons/thumb/f/f4/Elasticsearch_logo.svg/800px-Elasticsearch_logo.svg.png;" parent="1" vertex="1">
                    <mxGeometry x="310" y="593.5" width="182.46" height="40" as="geometry"/>
                </mxCell>
                <mxCell id="3ydWhISQHdn1RK8ehiRQ-32" style="edgeStyle=orthogonalEdgeStyle;rounded=0;orthogonalLoop=1;jettySize=auto;html=1;entryX=1;entryY=0.5;entryDx=0;entryDy=0;" parent="1" source="3ydWhISQHdn1RK8ehiRQ-30" target="3ydWhISQHdn1RK8ehiRQ-27" edge="1">
                    <mxGeometry relative="1" as="geometry"/>
                </mxCell>
                <mxCell id="3ydWhISQHdn1RK8ehiRQ-30" value="" style="aspect=fixed;html=1;points=[];align=center;image;fontSize=12;image=img/lib/azure2/general/Browser.svg;" parent="1" vertex="1">
                    <mxGeometry x="621" y="534" width="197.5" height="158" as="geometry"/>
                </mxCell>
                <mxCell id="3ydWhISQHdn1RK8ehiRQ-31" value="" style="shape=image;verticalLabelPosition=bottom;labelBackgroundColor=#ffffff;verticalAlign=top;aspect=fixed;imageAspect=0;image=https://static-www.elastic.co/v3/assets/bltefdd0b53724fa2ce/blt987f36e6cf17bc9a/5ea8c7fba7bdee51f48010f7/brand-elastic-vertical-220x130.svg;" parent="1" vertex="1">
                    <mxGeometry x="660.52" y="593.5" width="118.46" height="70" as="geometry"/>
                </mxCell>
                <mxCell id="3ydWhISQHdn1RK8ehiRQ-33" value="&lt;font face=&quot;Courier New&quot; color=&quot;#ea6b66&quot;&gt;&lt;b&gt;write all &lt;br&gt;syslogs&lt;/b&gt;&lt;/font&gt;" style="text;html=1;strokeColor=none;fillColor=none;align=center;verticalAlign=middle;whiteSpace=wrap;rounded=0;" parent="1" vertex="1">
                    <mxGeometry x="164" y="315" width="152" height="30" as="geometry"/>
                </mxCell>
                <mxCell id="3ydWhISQHdn1RK8ehiRQ-34" value="&lt;font face=&quot;Courier New&quot; color=&quot;#ea6b66&quot;&gt;&lt;b&gt;parse logs ssh connection&lt;/b&gt;&lt;/font&gt;" style="text;html=1;strokeColor=none;fillColor=none;align=center;verticalAlign=middle;whiteSpace=wrap;rounded=0;" parent="1" vertex="1">
                    <mxGeometry x="666.63" y="340" width="106.25" height="30" as="geometry"/>
                </mxCell>
                <mxCell id="3ydWhISQHdn1RK8ehiRQ-35" value="&lt;font face=&quot;Courier New&quot; color=&quot;#ea6b66&quot;&gt;&lt;b&gt;Count the number failure connection (using windowing) per user&lt;/b&gt;&lt;/font&gt;" style="text;html=1;strokeColor=none;fillColor=none;align=center;verticalAlign=middle;whiteSpace=wrap;rounded=0;" parent="1" vertex="1">
                    <mxGeometry x="289" y="396" width="164" height="30" as="geometry"/>
                </mxCell>
                <mxCell id="3ydWhISQHdn1RK8ehiRQ-36" value="&lt;font face=&quot;Courier New&quot; color=&quot;#ea6b66&quot;&gt;&lt;b&gt;Export kafka messages to elasticsearch&lt;/b&gt;&lt;/font&gt;" style="text;html=1;strokeColor=none;fillColor=none;align=center;verticalAlign=middle;whiteSpace=wrap;rounded=0;" parent="1" vertex="1">
                    <mxGeometry x="129" y="555" width="164" height="30" as="geometry"/>
                </mxCell>
                <mxCell id="3ydWhISQHdn1RK8ehiRQ-37" value="&lt;font face=&quot;Courier New&quot; color=&quot;#ea6b66&quot;&gt;&lt;b&gt;Dashboarding&lt;/b&gt;&lt;/font&gt;" style="text;html=1;strokeColor=none;fillColor=none;align=center;verticalAlign=middle;whiteSpace=wrap;rounded=0;" parent="1" vertex="1">
                    <mxGeometry x="637.75" y="502" width="164" height="30" as="geometry"/>
                </mxCell>
            </root>
        </mxGraphModel>
    </diagram>
</mxfile>